<svg xmlns="http://www.w3.org/2000/svg" width="64" height="64"><g><path d="M8.706 2.124s-8.611 0-8.611 8.611v42.489s0 8.611 8.611 8.611h46.108s8.611 0 8.611-8.611v-42.489s0-8.611-8.611-8.611h-46.108z" fill="#d66c10"/><path d="M8.706 2.124s-8.611 0-8.611 8.611v42.489s0 8.611 8.611 8.611h46.108s8.611 0 8.611-8.611v-42.489s0-8.611-8.611-8.611h-46.108z" stroke="#d66c10" stroke-width="0.608328" fill="none"/><path d="M54.785 32.14v-.09c0-8.992-7.003-16.266-16.764-16.266-9.759 0-16.853 7.365-16.853 16.356v.091c0 8.991 7.003 16.267 16.764 16.267 9.76 0 16.853-7.366 16.853-16.357zm-7.274.091c0 5.422-3.886 9.85-9.489 9.85-5.602 0-9.579-4.518-9.579-9.941v-.091c0-5.422 3.886-9.85 9.489-9.85 5.603 0 9.579 4.518 9.579 9.94v.091zm-30.604-13.302v-.089c0-1.964-1.672-3.168-3.84-3.168-2.169 0-3.84 1.205-3.84 3.168v.089c0 1.964 1.672 3.213 3.84 3.213 2.169 0 3.84-1.25 3.84-3.213zm-3.92 7.753c-1.298 0-2.451-.272-3.313-.754v19.283c0 1.817 1.536 3.288 3.434 3.288 1.898 0 3.434-1.471 3.434-3.288v-19.429c-.881.575-2.132.9-3.555.9z" fill="#fff"/><path d="M54.785 32.14v-.09c0-8.992-7.003-16.266-16.764-16.266-9.759 0-16.853 7.365-16.853 16.356v.091c0 8.991 7.003 16.267 16.764 16.267 9.76 0 16.853-7.366 16.853-16.357zm-7.274.091c0 5.422-3.886 9.85-9.489 9.85-5.602 0-9.579-4.518-9.579-9.941v-.091c0-5.422 3.886-9.85 9.489-9.85 5.603 0 9.579 4.518 9.579 9.94v.091zm-30.604-13.302v-.089c0-1.964-1.672-3.168-3.84-3.168-2.169 0-3.84 1.205-3.84 3.168v.089c0 1.964 1.672 3.213 3.84 3.213 2.169 0 3.84-1.25 3.84-3.213zm-3.92 7.753c-1.298 0-2.451-.272-3.313-.754v19.283c0 1.817 1.536 3.288 3.434 3.288 1.898 0 3.434-1.471 3.434-3.288v-19.429c-.881.575-2.132.9-3.555.9z" stroke="#fff" stroke-width="1.256274" fill="none"/></g></svg>